<?xml version="1.0" encoding="UTF-8" standalone="no"?>
<svg xmlns="http://www.w3.org/2000/svg" version="1.2" baseProfile="tiny" viewBox="0 0 917 1179">
<g fill="#ffea00">
<path d="
  M 247.31 0.00
  L 253.81 0.00
  C 307.89 3.30 344.41 56.52 324.59 108.10
  C 302.27 166.20 223.51 177.20 186.48 126.59
  C 148.57 74.77 183.74 3.92 247.31 0.00
  Z
  M 317.38 79.50
  A 66.88 66.88 0.0 0 0 250.50 12.62
  A 66.88 66.88 0.0 0 0 183.62 79.50
  A 66.88 66.88 0.0 0 0 250.50 146.38
  A 66.88 66.88 0.0 0 0 317.38 79.50
  Z"
/>
<path d="
  M 557.94 125.50
  A 79.44 79.44 0.0 0 1 478.50 204.94
  A 79.44 79.44 0.0 0 1 399.06 125.50
  A 79.44 79.44 0.0 0 1 478.50 46.06
  A 79.44 79.44 0.0 0 1 557.94 125.50
  Z
  M 545.38 125.50
  A 66.88 66.88 0.0 0 0 478.50 58.62
  A 66.88 66.88 0.0 0 0 411.62 125.50
  A 66.88 66.88 0.0 0 0 478.50 192.38
  A 66.88 66.88 0.0 0 0 545.38 125.50
  Z"
/>
<path d="
  M 741.94 125.50
  A 79.44 79.44 0.0 0 1 662.50 204.94
  A 79.44 79.44 0.0 0 1 583.06 125.50
  A 79.44 79.44 0.0 0 1 662.50 46.06
  A 79.44 79.44 0.0 0 1 741.94 125.50
  Z
  M 729.38 125.50
  A 66.88 66.88 0.0 0 0 662.50 58.62
  A 66.88 66.88 0.0 0 0 595.62 125.50
  A 66.88 66.88 0.0 0 0 662.50 192.38
  A 66.88 66.88 0.0 0 0 729.38 125.50
  Z"
/>
<path d="
  M 391.94 239.50
  A 79.44 79.44 0.0 0 1 312.50 318.94
  A 79.44 79.44 0.0 0 1 233.06 239.50
  A 79.44 79.44 0.0 0 1 312.50 160.06
  A 79.44 79.44 0.0 0 1 391.94 239.50
  Z
  M 379.38 239.50
  A 66.88 66.88 0.0 0 0 312.50 172.62
  A 66.88 66.88 0.0 0 0 245.62 239.50
  A 66.88 66.88 0.0 0 0 312.50 306.38
  A 66.88 66.88 0.0 0 0 379.38 239.50
  Z"
/>
<path d="
  M 668.94 291.51
  A 79.44 79.44 0.0 0 1 589.50 370.95
  A 79.44 79.44 0.0 0 1 510.06 291.51
  A 79.44 79.44 0.0 0 1 589.50 212.07
  A 79.44 79.44 0.0 0 1 668.94 291.51
  Z
  M 656.38 291.50
  A 66.88 66.88 0.0 0 0 589.50 224.62
  A 66.88 66.88 0.0 0 0 522.62 291.50
  A 66.88 66.88 0.0 0 0 589.50 358.38
  A 66.88 66.88 0.0 0 0 656.38 291.50
  Z"
/>
<path d="
  M 342.35 341.32
  Q 339.12 340.75 339.73 343.97
  C 343.18 362.42 341.76 370.10 325.36 380.43
  C 317.95 385.09 318.17 395.49 320.70 402.83
  Q 321.64 405.55 320.05 407.94
  Q 266.21 489.07 240.47 583.95
  C 239.17 588.74 230.70 588.21 226.82 588.53
  C 200.89 590.66 181.38 603.70 165.12 623.25
  Q 163.10 625.69 161.90 628.89
  C 110.97 764.73 59.88 900.39 16.28 1038.77
  A 1.57 1.56 -55.3 0 0 16.54 1040.21
  C 51.15 1084.90 98.23 1108.28 154.76 1112.51
  C 164.62 1113.25 163.94 1125.45 153.18 1124.82
  C 94.71 1121.40 41.64 1094.06 6.41 1047.56
  Q 4.61 1045.17 3.73 1043.48
  Q 2.52 1041.13 3.30 1038.60
  C 47.09 898.05 99.02 760.53 150.79 622.91
  Q 152.10 619.42 154.24 616.72
  C 173.08 592.94 198.85 577.04 229.23 575.67
  A 0.76 0.76 -83.5 0 0 229.92 575.12
  Q 255.71 483.50 307.55 404.20
  A 1.22 1.19 -35.0 0 0 307.72 403.30
  C 304.21 385.50 309.06 375.74 323.85 366.24
  C 334.71 359.26 324.78 347.65 327.60 338.19
  C 334.05 316.52 378.84 340.36 390.13 346.53
  Q 393.24 348.22 394.21 349.75
  C 396.51 353.38 393.31 358.92 389.09 358.93
  Q 387.24 358.93 383.79 357.16
  C 370.85 350.50 356.77 343.88 342.35 341.32
  Z"
/>
<path d="
  M 508.68 370.77
  Q 504.35 370.45 500.53 372.03
  Q 482.54 379.44 465.66 390.65
  C 457.45 396.10 450.82 385.48 458.15 380.63
  C 470.56 372.43 499.47 353.95 513.59 359.07
  C 524.03 362.85 521.66 373.39 520.87 382.22
  C 520.00 392.03 527.26 393.11 533.74 397.26
  C 545.71 404.94 547.38 415.56 546.57 428.94
  A 1.34 1.29 -63.4 0 0 546.85 429.84
  Q 605.89 504.08 639.94 592.64
  A 0.70 0.68 78.1 0 0 640.61 593.09
  C 671.83 591.89 697.82 605.24 719.08 627.04
  Q 721.41 629.43 722.98 632.66
  C 787.38 764.91 851.93 897.21 908.51 1033.05
  Q 909.73 1035.98 908.13 1038.71
  C 878.22 1089.86 823.87 1125.71 764.74 1132.95
  C 757.60 1133.82 755.04 1122.15 764.11 1120.56
  C 820.37 1110.66 864.56 1084.10 895.32 1036.00
  A 1.83 1.81 -40.2 0 0 895.47 1034.31
  C 840.10 901.49 772.49 763.54 712.58 639.69
  Q 711.13 636.70 708.92 634.54
  C 688.19 614.28 665.33 603.24 635.81 605.93
  C 633.31 606.16 631.00 603.85 630.03 601.44
  Q 625.98 591.38 621.82 581.36
  Q 588.60 501.38 534.28 434.10
  Q 533.00 432.51 533.47 430.53
  C 534.89 424.50 535.14 415.58 530.74 410.62
  Q 529.31 409.01 525.71 407.16
  C 513.83 401.06 507.95 394.56 508.67 380.63
  Q 508.91 375.96 509.16 371.32
  A 0.52 0.52 3.9 0 0 508.68 370.77
  Z"
/>
<path d="
  M 0.00 1101.19
  L 0.00 1099.94
  C 1.39 1094.69 6.02 1093.03 10.38 1096.07
  Q 16.88 1100.61 23.43 1105.00
  Q 93.84 1152.12 178.51 1156.32
  Q 184.95 1156.64 188.88 1155.36
  C 200.16 1151.69 202.24 1144.30 207.51 1132.08
  C 253.69 1025.00 297.71 916.35 335.65 806.05
  Q 348.21 769.52 357.94 732.16
  C 362.59 714.31 365.98 696.80 363.34 678.28
  Q 358.97 647.64 334.02 630.25
  C 331.01 628.15 329.29 624.86 331.20 621.48
  C 366.00 559.94 382.10 495.11 376.51 424.24
  C 376.18 420.01 378.31 417.77 382.47 417.18
  C 395.93 415.29 403.57 403.69 397.13 390.80
  Q 395.43 387.39 395.54 385.75
  C 396.00 378.84 404.61 378.38 407.72 384.05
  C 417.43 401.77 409.52 422.72 389.99 428.42
  A 0.65 0.62 -10.6 0 0 389.53 429.06
  Q 390.53 452.10 389.92 465.93
  C 387.45 522.39 371.78 572.83 345.13 622.36
  A 0.58 0.58 32.9 0 0 345.29 623.09
  C 368.94 641.49 378.65 670.32 376.66 698.93
  Q 376.02 708.04 373.02 721.65
  Q 366.80 749.82 358.12 777.33
  C 341.23 830.93 321.67 883.69 301.27 936.05
  Q 261.22 1038.83 217.66 1140.17
  Q 212.51 1152.15 208.93 1156.49
  C 198.85 1168.73 186.52 1169.59 170.35 1168.39
  Q 78.52 1161.58 3.66 1106.59
  Q 0.64 1104.37 0.00 1101.19
  Z"
/>
<path d="
  M 917.00 1093.56
  L 917.00 1095.56
  Q 916.37 1097.87 915.19 1098.94
  Q 840.63 1166.30 740.44 1179.00
  L 736.69 1179.00
  C 721.11 1177.52 712.93 1169.73 705.68 1156.43
  C 656.59 1066.35 608.40 973.07 563.92 879.77
  Q 539.30 828.14 520.23 779.22
  Q 514.62 764.82 508.58 745.06
  C 498.49 712.03 503.26 675.08 529.26 650.64
  A 0.60 0.59 51.6 0 0 529.34 649.88
  Q 521.92 638.67 519.60 634.93
  Q 470.31 555.64 467.34 461.92
  A 0.64 0.64 5.8 0 0 466.84 461.31
  C 446.93 456.83 436.52 437.28 445.06 418.59
  C 449.03 409.92 460.29 414.55 456.14 424.29
  C 450.92 436.57 459.13 448.72 472.34 449.18
  C 476.33 449.31 479.49 450.76 479.64 455.02
  Q 480.23 472.35 480.55 476.45
  C 485.38 540.04 506.87 595.17 542.81 647.43
  C 546.94 653.44 540.67 656.96 537.14 660.37
  Q 519.56 677.32 516.80 701.73
  C 514.84 719.16 517.96 733.94 523.51 750.79
  Q 530.41 771.76 538.82 792.18
  C 559.79 843.05 583.55 892.73 608.00 942.00
  Q 660.74 1048.25 717.66 1152.32
  C 723.99 1163.89 731.83 1167.74 744.99 1165.81
  Q 835.97 1152.47 904.61 1091.71
  C 909.22 1087.63 914.52 1086.45 917.00 1093.56
  Z"
/>
<path d="
  M 256.19 733.81
  C 252.25 733.14 249.67 730.65 250.30 726.48
  C 251.04 721.56 255.03 720.99 259.46 721.71
  C 285.69 725.98 307.77 706.77 306.39 680.13
  Q 306.19 676.14 306.94 674.48
  C 309.82 668.10 318.33 671.14 318.82 677.75
  C 321.49 713.95 291.91 739.94 256.19 733.81
  Z"
/>
<path d="
  M 627.00 754.04
  C 592.53 762.85 562.24 739.02 561.03 703.97
  C 560.68 693.66 573.33 693.62 573.41 702.68
  C 573.67 730.35 597.27 748.69 624.39 741.72
  Q 627.96 740.81 629.68 741.28
  C 633.91 742.43 635.42 748.80 632.22 751.71
  Q 630.71 753.09 627.00 754.04
  Z"
/>
<path d="
  M 316.38 729.54
  C 323.41 723.88 329.90 728.84 327.01 737.17
  Q 264.52 917.18 202.01 1097.18
  C 200.79 1100.70 198.77 1103.21 194.99 1103.03
  Q 103.82 1098.64 35.28 1040.48
  C 32.55 1038.16 32.82 1035.21 34.00 1031.86
  Q 78.24 905.95 122.49 780.05
  C 127.51 765.77 137.28 756.31 152.48 753.32
  Q 155.15 752.80 157.68 753.79
  C 211.54 775.02 271.39 765.79 316.38 729.54
  Z
  M 47.06 1033.81
  C 86.38 1067.85 139.29 1087.11 190.74 1090.21
  A 0.56 0.56 -78.5 0 0 191.31 1089.83
  L 308.97 750.97
  Q 309.25 750.15 308.52 750.62
  C 262.16 780.30 205.38 785.43 154.17 765.95
  A 1.54 1.46 46.5 0 0 153.23 765.90
  C 142.94 768.62 137.66 774.64 134.15 784.63
  Q 90.51 908.81 46.86 1033.02
  A 0.73 0.71 -59.9 0 0 47.06 1033.81
  Z"
/>
<path d="
  M 718.45 1112.18
  Q 717.48 1111.42 716.97 1110.30
  Q 637.79 936.75 558.33 762.54
  C 554.86 754.93 560.65 749.17 567.89 753.91
  C 617.03 786.09 677.18 789.66 729.58 763.11
  Q 731.31 762.24 733.23 762.45
  C 747.75 764.02 759.35 771.60 765.42 784.77
  Q 822.01 907.49 878.53 1030.24
  C 879.82 1033.03 878.43 1035.79 876.25 1037.97
  Q 813.37 1101.06 724.63 1113.80
  C 721.88 1114.20 720.51 1113.80 718.45 1112.18
  Z
  M 753.03 787.76
  C 749.85 780.86 740.93 776.00 733.77 775.31
  A 1.84 1.72 -53.2 0 0 732.82 775.48
  C 687.55 797.09 635.12 799.99 588.84 779.35
  Q 583.43 776.94 577.94 774.55
  Q 577.48 774.34 577.69 774.80
  L 726.25 1100.47
  A 0.66 0.66 -17.0 0 0 726.97 1100.85
  Q 807.14 1088.05 864.82 1031.76
  A 0.87 0.87 55.4 0 0 865.00 1030.77
  Q 809.03 909.25 753.03 787.76
  Z"
/>
<rect x="-6.29" y="-97.73" transform="translate(130.00,888.50) rotate(19.6)" width="12.58" height="195.46" rx="6.24"/>
<rect x="-6.24" y="-97.29" transform="translate(700.51,980.99) rotate(-24.9)" width="12.48" height="194.58" rx="6.14"/>
</g>
</svg>
